<svg width="112" height="72" viewBox="0 0 112 72" fill="none" xmlns="http://www.w3.org/2000/svg">
<g clip-path="url(#clip0_0_426)">
<path d="M2.37523 64V54.816H3.53723V63.006H7.55523V64H2.37523ZM11.5538 64.168C11.1338 64.168 10.7324 64.0887 10.3498 63.93C9.97643 63.7713 9.6451 63.5427 9.35577 63.244C9.06643 62.936 8.8331 62.5627 8.65577 62.124C8.48777 61.676 8.40377 61.172 8.40377 60.612C8.40377 60.0427 8.48777 59.5387 8.65577 59.1C8.8331 58.652 9.06643 58.274 9.35577 57.966C9.6451 57.658 9.97643 57.4247 10.3498 57.266C10.7324 57.1073 11.1338 57.028 11.5538 57.028C11.9738 57.028 12.3704 57.1073 12.7438 57.266C13.1264 57.4247 13.4624 57.658 13.7518 57.966C14.0411 58.274 14.2698 58.652 14.4378 59.1C14.6151 59.5387 14.7038 60.0427 14.7038 60.612C14.7038 61.172 14.6151 61.676 14.4378 62.124C14.2698 62.5627 14.0411 62.936 13.7518 63.244C13.4624 63.5427 13.1264 63.7713 12.7438 63.93C12.3704 64.0887 11.9738 64.168 11.5538 64.168ZM11.5538 63.216C11.8431 63.216 12.1091 63.1553 12.3518 63.034C12.5944 62.9033 12.7998 62.726 12.9678 62.502C13.1451 62.2687 13.2804 61.9933 13.3738 61.676C13.4671 61.3587 13.5138 61.004 13.5138 60.612C13.5138 60.22 13.4671 59.8653 13.3738 59.548C13.2804 59.2213 13.1451 58.9413 12.9678 58.708C12.7998 58.4747 12.5944 58.2973 12.3518 58.176C12.1091 58.0453 11.8431 57.98 11.5538 57.98C11.2644 57.98 10.9984 58.0453 10.7558 58.176C10.5131 58.2973 10.3031 58.4747 10.1258 58.708C9.95777 58.9413 9.8271 59.2213 9.73377 59.548C9.64043 59.8653 9.59377 60.22 9.59377 60.612C9.59377 61.004 9.64043 61.3587 9.73377 61.676C9.8271 61.9933 9.95777 62.2687 10.1258 62.502C10.3031 62.726 10.5131 62.9033 10.7558 63.034C10.9984 63.1553 11.2644 63.216 11.5538 63.216ZM16.4957 64V57.196H17.4477L17.5457 58.428H17.5877C17.821 57.9987 18.101 57.658 18.4277 57.406C18.7637 57.154 19.1277 57.028 19.5197 57.028C19.7903 57.028 20.033 57.0747 20.2477 57.168L20.0237 58.176C19.9117 58.1387 19.809 58.1107 19.7157 58.092C19.6223 58.0733 19.5057 58.064 19.3657 58.064C19.0763 58.064 18.773 58.1807 18.4557 58.414C18.1477 58.6473 17.877 59.0533 17.6437 59.632V64H16.4957ZM23.9705 64.168C23.5131 64.168 23.0838 64.0887 22.6825 63.93C22.2905 63.762 21.9451 63.5287 21.6465 63.23C21.3571 62.922 21.1285 62.5487 20.9605 62.11C20.7925 61.6713 20.7085 61.172 20.7085 60.612C20.7085 60.052 20.7925 59.5527 20.9605 59.114C21.1378 58.666 21.3665 58.288 21.6465 57.98C21.9358 57.672 22.2625 57.4387 22.6265 57.28C22.9905 57.112 23.3685 57.028 23.7605 57.028C24.1898 57.028 24.5725 57.1027 24.9085 57.252C25.2538 57.4013 25.5385 57.616 25.7625 57.896C25.9958 58.176 26.1731 58.512 26.2945 58.904C26.4158 59.296 26.4765 59.7347 26.4765 60.22C26.4765 60.3413 26.4718 60.4627 26.4625 60.584C26.4625 60.696 26.4531 60.794 26.4345 60.878H21.8425C21.8891 61.606 22.1131 62.1847 22.5145 62.614C22.9251 63.034 23.4571 63.244 24.1105 63.244C24.4371 63.244 24.7358 63.1973 25.0065 63.104C25.2865 63.0013 25.5525 62.8707 25.8045 62.712L26.2105 63.468C25.9118 63.6547 25.5805 63.818 25.2165 63.958C24.8525 64.098 24.4371 64.168 23.9705 64.168ZM21.8285 60.052H25.4685C25.4685 59.3613 25.3191 58.8387 25.0205 58.484C24.7311 58.12 24.3205 57.938 23.7885 57.938C23.5458 57.938 23.3125 57.9847 23.0885 58.078C22.8738 58.1713 22.6778 58.3113 22.5005 58.498C22.3231 58.6753 22.1738 58.8947 22.0525 59.156C21.9405 59.4173 21.8658 59.716 21.8285 60.052ZM28.1578 64V57.196H29.1098L29.2078 58.176H29.2498C29.5484 57.8493 29.8704 57.5787 30.2158 57.364C30.5704 57.14 30.9531 57.028 31.3638 57.028C31.8864 57.028 32.2924 57.1447 32.5818 57.378C32.8804 57.602 33.0998 57.9193 33.2398 58.33C33.5944 57.938 33.9491 57.6253 34.3038 57.392C34.6678 57.1493 35.0598 57.028 35.4798 57.028C36.1798 57.028 36.6978 57.252 37.0338 57.7C37.3791 58.148 37.5518 58.8107 37.5518 59.688V64H36.4038V59.842C36.4038 59.198 36.3011 58.736 36.0958 58.456C35.8904 58.1667 35.5731 58.022 35.1438 58.022C34.6304 58.022 34.0611 58.372 33.4358 59.072V64H32.2878V59.842C32.2878 59.198 32.1851 58.736 31.9798 58.456C31.7744 58.1667 31.4524 58.022 31.0138 58.022C30.5004 58.022 29.9311 58.372 29.3058 59.072V64H28.1578ZM42.5679 64V57.196H43.7159V64H42.5679ZM43.1559 55.796C42.9319 55.796 42.7406 55.726 42.5819 55.586C42.4326 55.446 42.3579 55.2687 42.3579 55.054C42.3579 54.83 42.4326 54.6527 42.5819 54.522C42.7406 54.382 42.9319 54.312 43.1559 54.312C43.3799 54.312 43.5666 54.382 43.7159 54.522C43.8746 54.6527 43.9539 54.83 43.9539 55.054C43.9539 55.2687 43.8746 55.446 43.7159 55.586C43.5666 55.726 43.3799 55.796 43.1559 55.796ZM46.0132 66.87V57.196H46.9652L47.0632 57.98H47.1052C47.4132 57.7187 47.7492 57.4947 48.1132 57.308C48.4866 57.1213 48.8739 57.028 49.2752 57.028C49.7139 57.028 50.1012 57.112 50.4372 57.28C50.7732 57.4387 51.0532 57.672 51.2772 57.98C51.5012 58.2787 51.6692 58.6427 51.7812 59.072C51.9026 59.492 51.9632 59.968 51.9632 60.5C51.9632 61.0787 51.8839 61.5967 51.7252 62.054C51.5666 62.502 51.3519 62.8847 51.0812 63.202C50.8106 63.5193 50.4979 63.762 50.1432 63.93C49.7886 64.0887 49.4152 64.168 49.0232 64.168C48.7059 64.168 48.3886 64.098 48.0712 63.958C47.7632 63.818 47.4506 63.6267 47.1332 63.384L47.1612 64.574V66.87H46.0132ZM48.8272 63.202C49.1072 63.202 49.3639 63.1413 49.5972 63.02C49.8399 62.8893 50.0452 62.712 50.2132 62.488C50.3906 62.2547 50.5259 61.97 50.6192 61.634C50.7219 61.298 50.7732 60.92 50.7732 60.5C50.7732 60.1267 50.7406 59.786 50.6752 59.478C50.6099 59.17 50.5026 58.9087 50.3532 58.694C50.2132 58.47 50.0266 58.2973 49.7932 58.176C49.5692 58.0547 49.2986 57.994 48.9812 57.994C48.6919 57.994 48.3979 58.0733 48.0992 58.232C47.8099 58.3907 47.4972 58.6193 47.1612 58.918V62.488C47.4692 62.7493 47.7679 62.936 48.0572 63.048C48.3466 63.1507 48.6032 63.202 48.8272 63.202ZM55.5569 64.168C55.0715 64.168 54.6095 64.0793 54.1709 63.902C53.7322 63.7247 53.3495 63.5007 53.0229 63.23L53.5969 62.46C53.8955 62.7027 54.1989 62.8987 54.5069 63.048C54.8242 63.1973 55.1882 63.272 55.5989 63.272C56.0469 63.272 56.3829 63.1693 56.6069 62.964C56.8309 62.7587 56.9429 62.5067 56.9429 62.208C56.9429 62.0307 56.8962 61.8767 56.8029 61.746C56.7095 61.6153 56.5882 61.5033 56.4389 61.41C56.2989 61.3073 56.1355 61.2187 55.9489 61.144C55.7622 61.0693 55.5755 60.9947 55.3889 60.92C55.1462 60.836 54.9035 60.7427 54.6609 60.64C54.4182 60.528 54.1989 60.3973 54.0029 60.248C53.8162 60.0893 53.6622 59.9073 53.5409 59.702C53.4195 59.4967 53.3589 59.2493 53.3589 58.96C53.3589 58.6893 53.4102 58.4373 53.5129 58.204C53.6249 57.9613 53.7789 57.756 53.9749 57.588C54.1802 57.4107 54.4275 57.2753 54.7169 57.182C55.0062 57.0793 55.3329 57.028 55.6969 57.028C56.1262 57.028 56.5182 57.1027 56.8729 57.252C57.2369 57.4013 57.5495 57.5833 57.8109 57.798L57.2649 58.526C57.0315 58.3487 56.7889 58.204 56.5369 58.092C56.2849 57.98 56.0095 57.924 55.7109 57.924C55.2815 57.924 54.9642 58.022 54.7589 58.218C54.5629 58.414 54.4649 58.6427 54.4649 58.904C54.4649 59.0627 54.5069 59.2027 54.5909 59.324C54.6749 59.436 54.7869 59.5387 54.9269 59.632C55.0669 59.716 55.2255 59.7953 55.4029 59.87C55.5895 59.9353 55.7809 60.0053 55.9769 60.08C56.2195 60.1733 56.4622 60.2713 56.7049 60.374C56.9569 60.4767 57.1809 60.6073 57.3769 60.766C57.5729 60.9153 57.7315 61.102 57.8529 61.326C57.9835 61.55 58.0489 61.8207 58.0489 62.138C58.0489 62.418 57.9929 62.6793 57.8809 62.922C57.7782 63.1647 57.6195 63.3793 57.4049 63.566C57.1995 63.7527 56.9382 63.8973 56.6209 64C56.3129 64.112 55.9582 64.168 55.5569 64.168ZM61.6321 64.168C60.9041 64.168 60.3721 63.944 60.0361 63.496C59.7094 63.048 59.5461 62.3853 59.5461 61.508V57.196H60.7081V61.354C60.7081 61.998 60.8061 62.4647 61.0021 62.754C61.2074 63.034 61.5341 63.174 61.9821 63.174C62.3368 63.174 62.6494 63.0853 62.9201 62.908C63.1908 62.7213 63.4894 62.4273 63.8161 62.026V57.196H64.9641V64H64.0121L63.9141 62.936H63.8721C63.5548 63.3093 63.2188 63.608 62.8641 63.832C62.5188 64.056 62.1081 64.168 61.6321 64.168ZM67.2593 64V57.196H68.2113L68.3093 58.176H68.3513C68.65 57.8493 68.972 57.5787 69.3173 57.364C69.672 57.14 70.0547 57.028 70.4653 57.028C70.988 57.028 71.394 57.1447 71.6833 57.378C71.982 57.602 72.2013 57.9193 72.3413 58.33C72.696 57.938 73.0507 57.6253 73.4053 57.392C73.7693 57.1493 74.1613 57.028 74.5813 57.028C75.2813 57.028 75.7993 57.252 76.1353 57.7C76.4807 58.148 76.6533 58.8107 76.6533 59.688V64H75.5053V59.842C75.5053 59.198 75.4027 58.736 75.1973 58.456C74.992 58.1667 74.6747 58.022 74.2453 58.022C73.732 58.022 73.1627 58.372 72.5373 59.072V64H71.3893V59.842C71.3893 59.198 71.2867 58.736 71.0813 58.456C70.876 58.1667 70.554 58.022 70.1153 58.022C69.602 58.022 69.0327 58.372 68.4073 59.072V64H67.2593ZM83.9935 64.168C83.1348 64.168 82.4488 63.86 81.9355 63.244C81.4315 62.628 81.1795 61.7507 81.1795 60.612C81.1795 60.0613 81.2588 59.5667 81.4175 59.128C81.5855 58.68 81.8048 58.302 82.0755 57.994C82.3462 57.686 82.6588 57.448 83.0135 57.28C83.3682 57.112 83.7415 57.028 84.1335 57.028C84.5255 57.028 84.8662 57.098 85.1555 57.238C85.4448 57.378 85.7388 57.5693 86.0375 57.812L85.9815 56.65V54.032H87.1435V64H86.1915L86.0935 63.202H86.0515C85.7808 63.4633 85.4682 63.692 85.1135 63.888C84.7682 64.0747 84.3948 64.168 83.9935 64.168ZM84.2455 63.202C84.5628 63.202 84.8615 63.1273 85.1415 62.978C85.4215 62.8193 85.7015 62.5813 85.9815 62.264V58.708C85.6922 58.4467 85.4122 58.2647 85.1415 58.162C84.8802 58.05 84.6095 57.994 84.3295 57.994C84.0588 57.994 83.8022 58.0593 83.5595 58.19C83.3262 58.3113 83.1208 58.4887 82.9435 58.722C82.7662 58.946 82.6262 59.2167 82.5235 59.534C82.4208 59.8513 82.3695 60.206 82.3695 60.598C82.3695 61.4193 82.5328 62.0587 82.8595 62.516C83.1862 62.9733 83.6482 63.202 84.2455 63.202ZM92.0811 64.168C91.6611 64.168 91.2598 64.0887 90.8771 63.93C90.5038 63.7713 90.1724 63.5427 89.8831 63.244C89.5938 62.936 89.3604 62.5627 89.1831 62.124C89.0151 61.676 88.9311 61.172 88.9311 60.612C88.9311 60.0427 89.0151 59.5387 89.1831 59.1C89.3604 58.652 89.5938 58.274 89.8831 57.966C90.1724 57.658 90.5038 57.4247 90.8771 57.266C91.2598 57.1073 91.6611 57.028 92.0811 57.028C92.5011 57.028 92.8978 57.1073 93.2711 57.266C93.6538 57.4247 93.9898 57.658 94.2791 57.966C94.5684 58.274 94.7971 58.652 94.9651 59.1C95.1424 59.5387 95.2311 60.0427 95.2311 60.612C95.2311 61.172 95.1424 61.676 94.9651 62.124C94.7971 62.5627 94.5684 62.936 94.2791 63.244C93.9898 63.5427 93.6538 63.7713 93.2711 63.93C92.8978 64.0887 92.5011 64.168 92.0811 64.168ZM92.0811 63.216C92.3704 63.216 92.6364 63.1553 92.8791 63.034C93.1218 62.9033 93.3271 62.726 93.4951 62.502C93.6724 62.2687 93.8078 61.9933 93.9011 61.676C93.9944 61.3587 94.0411 61.004 94.0411 60.612C94.0411 60.22 93.9944 59.8653 93.9011 59.548C93.8078 59.2213 93.6724 58.9413 93.4951 58.708C93.3271 58.4747 93.1218 58.2973 92.8791 58.176C92.6364 58.0453 92.3704 57.98 92.0811 57.98C91.7918 57.98 91.5258 58.0453 91.2831 58.176C91.0404 58.2973 90.8304 58.4747 90.6531 58.708C90.4851 58.9413 90.3544 59.2213 90.2611 59.548C90.1678 59.8653 90.1211 60.22 90.1211 60.612C90.1211 61.004 90.1678 61.3587 90.2611 61.676C90.3544 61.9933 90.4851 62.2687 90.6531 62.502C90.8304 62.726 91.0404 62.9033 91.2831 63.034C91.5258 63.1553 91.7918 63.216 92.0811 63.216ZM98.241 64.168C97.8023 64.168 97.4897 64.0373 97.303 63.776C97.1163 63.5147 97.023 63.132 97.023 62.628V54.032H98.171V62.712C98.171 62.8987 98.2037 63.0293 98.269 63.104C98.3343 63.1787 98.409 63.216 98.493 63.216C98.5303 63.216 98.563 63.216 98.591 63.216C98.6283 63.216 98.6797 63.2067 98.745 63.188L98.899 64.056C98.8243 64.0933 98.7357 64.1213 98.633 64.14C98.5303 64.1587 98.3997 64.168 98.241 64.168ZM103.237 64.168C102.817 64.168 102.416 64.0887 102.033 63.93C101.66 63.7713 101.329 63.5427 101.039 63.244C100.75 62.936 100.517 62.5627 100.339 62.124C100.171 61.676 100.087 61.172 100.087 60.612C100.087 60.0427 100.171 59.5387 100.339 59.1C100.517 58.652 100.75 58.274 101.039 57.966C101.329 57.658 101.66 57.4247 102.033 57.266C102.416 57.1073 102.817 57.028 103.237 57.028C103.657 57.028 104.054 57.1073 104.427 57.266C104.81 57.4247 105.146 57.658 105.435 57.966C105.725 58.274 105.953 58.652 106.121 59.1C106.299 59.5387 106.387 60.0427 106.387 60.612C106.387 61.172 106.299 61.676 106.121 62.124C105.953 62.5627 105.725 62.936 105.435 63.244C105.146 63.5427 104.81 63.7713 104.427 63.93C104.054 64.0887 103.657 64.168 103.237 64.168ZM103.237 63.216C103.527 63.216 103.793 63.1553 104.035 63.034C104.278 62.9033 104.483 62.726 104.651 62.502C104.829 62.2687 104.964 61.9933 105.057 61.676C105.151 61.3587 105.197 61.004 105.197 60.612C105.197 60.22 105.151 59.8653 105.057 59.548C104.964 59.2213 104.829 58.9413 104.651 58.708C104.483 58.4747 104.278 58.2973 104.035 58.176C103.793 58.0453 103.527 57.98 103.237 57.98C102.948 57.98 102.682 58.0453 102.439 58.176C102.197 58.2973 101.987 58.4747 101.809 58.708C101.641 58.9413 101.511 59.2213 101.417 59.548C101.324 59.8653 101.277 60.22 101.277 60.612C101.277 61.004 101.324 61.3587 101.417 61.676C101.511 61.9933 101.641 62.2687 101.809 62.502C101.987 62.726 102.197 62.9033 102.439 63.034C102.682 63.1553 102.948 63.216 103.237 63.216ZM108.179 64V57.196H109.131L109.229 58.428H109.271C109.505 57.9987 109.785 57.658 110.111 57.406C110.447 57.154 110.811 57.028 111.203 57.028C111.474 57.028 111.717 57.0747 111.931 57.168L111.707 58.176C111.595 58.1387 111.493 58.1107 111.399 58.092C111.306 58.0733 111.189 58.064 111.049 58.064C110.76 58.064 110.457 58.1807 110.139 58.414C109.831 58.6473 109.561 59.0533 109.327 59.632V64H108.179Z" fill="white"/>
<path d="M22.1366 24.676V16.212H14.0406V11.428H22.1366V2.964H27.1046V11.428H35.2006V16.212H27.1046V24.676H22.1366ZM38.4813 29V25.136C40.352 23.388 42.054 21.7627 43.5873 20.26C45.1513 18.7267 46.4853 17.3007 47.5893 15.982C48.724 14.6327 49.598 13.3907 50.2113 12.256C50.8553 11.0907 51.1773 9.98667 51.1773 8.944C51.1773 7.50267 50.8093 6.414 50.0733 5.678C49.3373 4.91133 48.3253 4.528 47.0373 4.528C45.964 4.528 45.0133 4.83467 44.1853 5.448C43.3573 6.03067 42.5753 6.72067 41.8393 7.518L38.1593 3.884C39.6006 2.35067 41.0726 1.20067 42.5753 0.433998C44.078 -0.363335 45.872 -0.762001 47.9573 -0.762001C49.3986 -0.762001 50.702 -0.532001 51.8673 -0.0720013C53.0633 0.357332 54.0906 0.985999 54.9493 1.814C55.808 2.61133 56.4673 3.57733 56.9273 4.712C57.3873 5.84667 57.6173 7.11933 57.6173 8.53C57.6173 9.75667 57.3566 11.014 56.8353 12.302C56.314 13.5593 55.6086 14.832 54.7193 16.12C53.8606 17.3773 52.864 18.65 51.7293 19.938C50.6253 21.1953 49.4753 22.4373 48.2793 23.664C49.0153 23.572 49.828 23.4953 50.7173 23.434C51.6373 23.342 52.45 23.296 53.1553 23.296H59.0433V29H38.4813ZM69.73 17.5C68.6567 17.5 67.66 17.2853 66.74 16.856C65.82 16.4267 65.0227 15.798 64.348 14.97C63.704 14.142 63.198 13.1453 62.83 11.98C62.462 10.784 62.278 9.43467 62.278 7.932C62.278 6.42933 62.462 5.09533 62.83 3.93C63.198 2.76467 63.704 1.78333 64.348 0.985999C65.0227 0.157998 65.82 -0.470668 66.74 -0.900002C67.66 -1.32933 68.6567 -1.544 69.73 -1.544C70.8034 -1.544 71.8 -1.32933 72.72 -0.900002C73.64 -0.470668 74.422 0.157998 75.066 0.985999C75.7407 1.78333 76.262 2.76467 76.63 3.93C77.0287 5.09533 77.228 6.42933 77.228 7.932C77.228 9.43467 77.0287 10.784 76.63 11.98C76.262 13.1453 75.7407 14.142 75.066 14.97C74.422 15.798 73.64 16.4267 72.72 16.856C71.8 17.2853 70.8034 17.5 69.73 17.5ZM69.73 13.728C70.4967 13.728 71.1407 13.2987 71.662 12.44C72.214 11.5813 72.49 10.0787 72.49 7.932C72.49 5.78533 72.214 4.298 71.662 3.47C71.1407 2.642 70.4967 2.228 69.73 2.228C68.9634 2.228 68.304 2.642 67.752 3.47C67.2307 4.298 66.97 5.78533 66.97 7.932C66.97 10.0787 67.2307 11.5813 67.752 12.44C68.304 13.2987 68.9634 13.728 69.73 13.728ZM70.742 29.552L86.934 -1.544H90.844L74.652 29.552H70.742ZM91.856 29.552C90.7827 29.552 89.786 29.3373 88.866 28.908C87.946 28.4787 87.1487 27.85 86.474 27.022C85.83 26.194 85.324 25.1973 84.956 24.032C84.588 22.836 84.404 21.4867 84.404 19.984C84.404 18.4813 84.588 17.1473 84.956 15.982C85.324 14.8167 85.83 13.8353 86.474 13.038C87.1487 12.21 87.946 11.5813 88.866 11.152C89.786 10.7227 90.7827 10.508 91.856 10.508C92.9294 10.508 93.926 10.7227 94.846 11.152C95.766 11.5813 96.548 12.21 97.192 13.038C97.8667 13.8353 98.388 14.8167 98.756 15.982C99.1547 17.1473 99.354 18.4813 99.354 19.984C99.354 21.4867 99.1547 22.836 98.756 24.032C98.388 25.1973 97.8667 26.194 97.192 27.022C96.548 27.85 95.766 28.4787 94.846 28.908C93.926 29.3373 92.9294 29.552 91.856 29.552ZM91.856 25.78C92.6227 25.78 93.2667 25.3507 93.788 24.492C94.34 23.6333 94.616 22.1307 94.616 19.984C94.616 17.8373 94.34 16.35 93.788 15.522C93.2667 14.694 92.6227 14.28 91.856 14.28C91.0894 14.28 90.43 14.694 89.878 15.522C89.3567 16.35 89.096 17.8373 89.096 19.984C89.096 22.1307 89.3567 23.6333 89.878 24.492C90.43 25.3507 91.0894 25.78 91.856 25.78Z" fill="white"/>
</g>
<defs>
<clipPath id="clip0_0_426">
<rect width="112" height="72" fill="white"/>
</clipPath>
</defs>
</svg>
